# xmcd
#
# Track frame offsets: 
#        150
#        19285
#        33040
#        58212
#        78012
#        99417
#        114417
#        132280
#        152067
#        168815
#        183325
#        200295
#        221247
#        247130
#
# Disc length: 4381 seconds
#
# Revision: 4
# Processed by: cddbd v1.5.1PL0 Copyright (c) Steve Scherf et al.
# Submitted via: ExactAudioCopy v0.90b3
#
DISCID=b6111b0e
DTITLE=Various Artist - A Tribute to Howlin' Wolf
DYEAR=1998
DGENRE=Blues
TTITLE0=Saddle My Pony - Taj Mahal, Hubert Sumlin
TTITLE1=Howlin' for My Darling - Christine Ohlman, Eddie Shaw, Hubert 
TTITLE1=Sumlin
TTITLE2=The Red Rooster - Kenny Neal, Hubert Sumlin
TTITLE3=Just Like I Treat You - Colin Linden, James Cotton, Hubert Sum
TTITLE3=lin
TTITLE4=Built for Comfort - Eddie Shaw, Hubert Sumlin
TTITLE5=Ooh Baby (Hold Me) - Debbie Davies, Hubert Sumlin, Colin Linde
TTITLE5=n
TTITLE6=Riding in the Moonlight - Cub Koda, Lucky Peterson, Hubert Sum
TTITLE6=lin
TTITLE7=Back Door Man - Ronnie Hawkins, Cub Koda, Hubert Sumlin, Colin
TTITLE7=Linden
TTITLE8=Baby How Long - Sam Lay, Hubert Sumlin, Colin Linden, Eddie Sh
TTITLE8=aw
TTITLE9=Killing Floor - Hubert Sumlin, Colin Linden
TTITLE10=Howlin' Wolf Boogie - Colin James, Cub Koda, Hubert Sumlin
TTITLE11=Smokestack Lightnin' - Henry Gray, Hubert Sumlin, Colin Linde
TTITLE11=n
TTITLE12=Come to Me Baby - Lucinda Williams, Colin Linden
TTITLE13=Data Track
EXTD=
EXTT0=
EXTT1=
EXTT2=
EXTT3=
EXTT4=
EXTT5=
EXTT6=
EXTT7=
EXTT8=
EXTT9=
EXTT10=
EXTT11=
EXTT12=
EXTT13=
PLAYORDER=
